<?xml version="1.0" encoding="UTF-8" standalone="no"?>
<!DOCTYPE svg PUBLIC "-//W3C//DTD SVG 1.1//EN" "http://www.w3.org/Graphics/SVG/1.1/DTD/svg11.dtd">
<svg width="100%" height="100%" viewBox="0 0 800 800" version="1.1" xmlns="http://www.w3.org/2000/svg" xmlns:xlink="http://www.w3.org/1999/xlink" xml:space="preserve" xmlns:serif="http://www.serif.com/" style="fill-rule:evenodd;clip-rule:evenodd;stroke-linejoin:round;stroke-miterlimit:2;">
    <g id="Group_65" transform="matrix(1,0,0,1,-8775.98,-4057.28)">
        <path id="Path_57" d="M8992.75,4857.28C8992.75,4857.28 8992.75,4857.28 8992.74,4857.28C8984.06,4857.28 8976.91,4850.14 8976.91,4841.45C8976.91,4837.26 8978.58,4833.23 8981.55,4830.26L9335.7,4476.08C9345.96,4465.74 9345.96,4448.81 9335.7,4438.47L8981.55,4084.31C8978.59,4081.35 8976.92,4077.32 8976.92,4073.12C8976.92,4064.43 8984.07,4057.29 8992.75,4057.29C8996.95,4057.29 9000.98,4058.96 9003.95,4061.93L9358.08,4416.08C9380.63,4438.71 9380.63,4475.85 9358.08,4498.48L9003.94,4852.65C9000.97,4855.62 8996.94,4857.28 8992.75,4857.28Z" style="fill:white;fill-rule:nonzero;"/>
    </g>
</svg>
